<?xml version="1.0" encoding="UTF-8"?>
<svg width="120" height="120" viewBox="0 0 120 120" xmlns="http://www.w3.org/2000/svg">
  <!-- 
    Advanced RAG System Logo
    
    Design Principles:
    - Visual representation of knowledge retrieval and augmentation
    - Neural network and document retrieval symbology
    - Clean, scalable vector graphics with balanced proportions
    - Optimized for multiple display contexts
    
    Color Theory:
    - Primary blue: #0EA5E9 - Represents intelligence and trust
    - Secondary purple: #8B5CF6 - Represents creativity and innovation
    - Gradient transitions create depth and dimensionality
  -->
  
  <!-- Background circle with subtle gradient -->
  <circle cx="60" cy="60" r="56" fill="url(#bg-gradient)" />
  
  <!-- Neural network representation -->
  <g id="neural-network" stroke-width="2.5" stroke-linecap="round">
    <!-- Network nodes -->
    <circle cx="40" cy="32" r="6" fill="#0EA5E9" />
    <circle cx="80" cy="32" r="6" fill="#8B5CF6" />
    <circle cx="30" cy="60" r="6" fill="#0EA5E9" />
    <circle cx="60" cy="60" r="6" fill="#8B5CF6" />
    <circle cx="90" cy="60" r="6" fill="#0EA5E9" />
    <circle cx="40" cy="88" r="6" fill="#8B5CF6" />
    <circle cx="80" cy="88" r="6" fill="#0EA5E9" />
    
    <!-- Network connections -->
    <g stroke="#FFFFFF" opacity="0.8">
      <!-- Layer 1 to Layer 2 connections -->
      <path d="M40 38 L30 54" />
      <path d="M40 38 L60 54" />
      <path d="M40 38 L90 54" />
      <path d="M80 38 L30 54" />
      <path d="M80 38 L60 54" />
      <path d="M80 38 L90 54" />
      
      <!-- Layer 2 to Layer 3 connections -->
      <path d="M30 66 L40 82" />
      <path d="M30 66 L80 82" />
      <path d="M60 66 L40 82" />
      <path d="M60 66 L80 82" />
      <path d="M90 66 L40 82" />
      <path d="M90 66 L80 82" />
    </g>
  </g>
  
  <!-- Document icon overlay -->
  <g id="document-icon" transform="translate(48, 48) scale(0.5)">
    <path d="M24 8 L24 56 C24 58.2 25.8 60 28 60 L72 60 C74.2 60 76 58.2 76 56 L76 8 L24 8 Z" fill="#FFFFFF" opacity="0.9" />
    <path d="M32 20 L68 20 M32 30 L68 30 M32 40 L60 40" stroke="#0EA5E9" stroke-width="4" stroke-linecap="round" />
  </g>
  
  <!-- Magnifying glass integration symbol -->
  <g id="search-integration" transform="translate(70, 70) scale(0.25)">
    <circle cx="50" cy="50" r="30" fill="none" stroke="#FFFFFF" stroke-width="12" />
    <line x1="72" y1="72" x2="100" y2="100" stroke="#FFFFFF" stroke-width="12" stroke-linecap="round" />
  </g>
  
  <!-- Gradient definitions -->
  <defs>
    <linearGradient id="bg-gradient" x1="0%" y1="0%" x2="100%" y2="100%">
      <stop offset="0%" stop-color="#0EA5E9" stop-opacity="0.1" />
      <stop offset="100%" stop-color="#8B5CF6" stop-opacity="0.1" />
    </linearGradient>
  </defs>
</svg>
